<?xml version="1.0" encoding="UTF-8"?>
<svg version="1.1" xmlns="http://www.w3.org/2000/svg" width="322" height="322">
<path d="M0 0 C106.26 0 212.52 0 322 0 C322 106.26 322 212.52 322 322 C215.74 322 109.48 322 0 322 C0 215.74 0 109.48 0 0 Z " fill="#CFD0D2" transform="translate(0,0)"/>
<path d="M0 0 C1.17175781 0.01353516 1.17175781 0.01353516 2.3671875 0.02734375 C2.94726562 0.03894531 3.52734375 0.05054688 4.125 0.0625 C4.125 0.7225 4.125 1.3825 4.125 2.0625 C5.115 2.0625 6.105 2.0625 7.125 2.0625 C10.86173742 8.87655059 8.02984079 17.18301442 6.33984375 24.34765625 C6.07485832 25.49693604 6.07485832 25.49693604 5.80451965 26.66943359 C5.22928913 29.15592301 4.64620757 31.64048813 4.0625 34.125 C3.65708205 35.86707249 3.2518105 37.60917907 2.84667969 39.35131836 C-0.01993502 51.63071363 -3.03718811 63.86902814 -6.12841797 76.09350586 C-8.89259109 87.04506228 -11.42927939 98.03620499 -13.875 109.0625 C-16.3285134 120.07660021 -18.81252127 131.04977671 -21.78515625 141.9375 C-25.99568387 157.62517474 -29.46110901 173.52811943 -33.1015625 189.35546875 C-35.17399607 198.36503645 -37.25013074 207.37373396 -39.33605957 216.38018799 C-39.77246104 218.26648699 -40.20795373 220.15299652 -40.64245605 222.03973389 C-42.90441042 231.86001689 -45.25623984 241.62767885 -47.90136719 251.35229492 C-48.98204171 255.47040194 -49.95991435 259.6041555 -50.91015625 263.75390625 C-51.07759338 264.48304733 -51.24503052 265.21218842 -51.4175415 265.96342468 C-52.10015711 268.94366515 -52.78006554 271.92445038 -53.45043945 274.9074707 C-53.95097179 277.12874689 -54.46109699 279.34764746 -54.97265625 281.56640625 C-55.11961441 282.23209122 -55.26657257 282.89777618 -55.41798401 283.58363342 C-57.18219645 291.1651127 -59.76355313 295.51142254 -65.875 300.0625 C-69.07226547 301.66113274 -72.39670779 301.4317042 -75.875 301.0625 C-79.47411415 299.6364359 -82.46055311 298.14762658 -84.875 295.0625 C-84.875 294.4025 -84.875 293.7425 -84.875 293.0625 C-85.535 293.0625 -86.195 293.0625 -86.875 293.0625 C-87.11992187 292.52625 -87.36484375 291.99 -87.6171875 291.4375 C-91.37744399 283.55392778 -96.02032727 276.29896643 -100.68994141 268.93652344 C-102.31506883 266.36658563 -103.91627887 263.78314747 -105.5 261.1875 C-105.96664062 260.42695313 -106.43328125 259.66640625 -106.9140625 258.8828125 C-107.875 257.0625 -107.875 257.0625 -107.875 255.0625 C-108.535 255.0625 -109.195 255.0625 -109.875 255.0625 C-110.34808594 254.14210938 -110.82117188 253.22171875 -111.30859375 252.2734375 C-114.99144699 245.19197175 -118.84567452 238.36041226 -123.23388672 231.68920898 C-126.60718452 226.54067929 -129.78453075 221.28587473 -132.9375 216 C-140.5724543 203.20187726 -140.5724543 203.20187726 -148.47265625 190.56640625 C-151.875 185.24965181 -151.875 185.24965181 -151.875 183.0625 C-152.535 183.0625 -153.195 183.0625 -153.875 183.0625 C-154.12894531 182.54300781 -154.38289062 182.02351562 -154.64453125 181.48828125 C-154.98871094 180.79089844 -155.33289063 180.09351563 -155.6875 179.375 C-156.02394531 178.69050781 -156.36039063 178.00601563 -156.70703125 177.30078125 C-157.09246094 176.56214844 -157.47789062 175.82351562 -157.875 175.0625 C-158.22433594 174.26714844 -158.57367188 173.47179687 -158.93359375 172.65234375 C-161.90224134 168.69215591 -165.86879944 166.73486586 -170.125 164.3125 C-171.92976911 163.25925442 -173.73445577 162.20586753 -175.5390625 161.15234375 C-176.43657227 160.63397949 -177.33408203 160.11561523 -178.25878906 159.58154297 C-182.03275348 157.39027696 -185.76625723 155.13386782 -189.5 152.875 C-193.6252033 150.35752806 -193.6252033 150.35752806 -197.875 148.0625 C-197.875 147.4025 -197.875 146.7425 -197.875 146.0625 C-198.44863281 145.94777344 -199.02226562 145.83304688 -199.61328125 145.71484375 C-202.09692051 144.99849184 -203.87090769 143.99426033 -206.0625 142.625 C-210.01318705 140.19515266 -213.98577574 137.81353534 -217.98950195 135.47265625 C-227.55618681 129.8790731 -237.06379645 124.20446206 -246.3515625 118.15625 C-247.12177734 117.65472412 -247.89199219 117.15319824 -248.68554688 116.63647461 C-250.20217922 115.6460241 -251.71659239 114.65216521 -253.22851562 113.65454102 C-253.91880859 113.20264404 -254.60910156 112.75074707 -255.3203125 112.28515625 C-255.93406738 111.88047119 -256.54782227 111.47578613 -257.18017578 111.05883789 C-259.01850117 109.89901672 -259.01850117 109.89901672 -261.875 109.0625 C-261.875 108.4025 -261.875 107.7425 -261.875 107.0625 C-262.46506836 106.93576904 -263.05513672 106.80903809 -263.66308594 106.6784668 C-267.14179617 105.70972663 -270.06724142 103.74459879 -273.125 101.875 C-273.79305664 101.46789795 -274.46111328 101.0607959 -275.14941406 100.64135742 C-289.82018234 91.6122313 -289.82018234 91.6122313 -291.875 85.0625 C-292.41119074 80.74233462 -292.40715017 77.25983787 -290.625 73.25 C-286.98503208 68.7000401 -284.50565549 66.58968985 -278.75 65.1875 C-278.10659668 65.02733398 -277.46319336 64.86716797 -276.80029297 64.70214844 C-274.49601546 64.13651941 -272.18660011 63.59740825 -269.875 63.0625 C-268.97974609 62.85399414 -268.08449219 62.64548828 -267.16210938 62.43066406 C-263.00280241 61.46445958 -258.84214017 60.5045399 -254.67895508 59.55517578 C-245.57685634 57.47590847 -236.50615632 55.28166839 -227.4375 53.0625 C-216.05607395 50.27899279 -204.65680734 47.61568287 -193.20336914 45.140625 C-185.42757146 43.45080819 -177.7111554 41.55621005 -169.99893188 39.60089111 C-166.40393251 38.68960214 -162.80737046 37.78451799 -159.2109375 36.87890625 C-158.4850946 36.6960759 -157.75925171 36.51324554 -157.01141357 36.32487488 C-143.4598394 32.91351573 -129.90944613 29.54239802 -116.26953125 26.5 C-92.78964217 21.25309741 -69.33982286 15.8106372 -46.02685547 9.86474609 C-39.99655612 8.32984573 -33.96199069 6.81194162 -27.92660522 5.29718018 C-25.80250593 4.76319955 -23.67918742 4.22619553 -21.5559082 3.68896484 C-20.24303688 3.35890794 -18.93013155 3.02898623 -17.6171875 2.69921875 C-16.4607373 2.40748779 -15.30428711 2.11575684 -14.11279297 1.81518555 C-9.37644586 0.71413306 -4.86685289 -0.0737402 0 0 Z " fill="#FDFDFD" transform="translate(295.875,5.9375)"/>
<path d="M0 0 C0.99 0.495 0.99 0.495 2 1 C0.65030624 6.68876638 -0.70066742 12.37722688 -2.05273438 18.06542969 C-2.51075279 19.99308423 -2.96844527 21.92081625 -3.42578125 23.84863281 C-5.61329609 33.06881597 -7.80183875 42.28750886 -10.1171875 51.4765625 C-11.9500684 58.75809842 -13.68011859 66.06024865 -15.375 73.375 C-15.67753822 74.67531968 -15.98019377 75.97561206 -16.28295898 77.27587891 C-17.72468598 83.47300383 -19.15610053 89.67242318 -20.57421875 95.875 C-22.95414301 106.27574904 -25.38425284 116.65575474 -28 127 C-30.02845583 135.02221565 -31.96704532 143.05869911 -33.8125 151.125 C-36.33186116 162.13535326 -38.89948016 173.1335719 -41.5 184.125 C-41.69384277 184.94433014 -41.88768555 185.76366028 -42.08740234 186.6078186 C-44.66144629 197.47533214 -47.28407778 208.32850386 -50.03417969 219.15307617 C-51.13442486 223.49046113 -52.20188554 227.82940341 -53.18359375 232.1953125 C-53.36559326 233.00057373 -53.54759277 233.80583496 -53.73510742 234.63549805 C-54.06707281 236.11966192 -54.39199778 237.60542667 -54.70825195 239.09301758 C-55.07721639 240.74366986 -55.53026668 242.37514975 -56 244 C-56.66 244.33 -57.32 244.66 -58 245 C-64.24878434 234.8278625 -70.43504578 224.62072929 -76.5625 214.375 C-81.05620766 206.86282863 -85.59296959 199.38730361 -90.27783203 191.99291992 C-94.56342458 185.18759903 -98.59904695 178.23289511 -102.62353516 171.27075195 C-103.14866699 170.3705835 -103.67379883 169.47041504 -104.21484375 168.54296875 C-104.68011475 167.73883545 -105.14538574 166.93470215 -105.62475586 166.10620117 C-106.92810701 164.11010489 -108.32378723 162.67507461 -110 161 C-110.95615536 159.11678966 -111.90747055 157.23079342 -112.82226562 155.32714844 C-115.51878089 149.99895948 -118.80275209 144.97761928 -121.9296875 139.89453125 C-122.71472656 138.60482422 -122.71472656 138.60482422 -123.515625 137.2890625 C-123.99290039 136.51256348 -124.47017578 135.73606445 -124.96191406 134.93603516 C-126 133 -126 133 -126 131 C-126.66 131 -127.32 131 -128 131 C-127.51722823 126.78566891 -124.94359771 124.53150881 -122.05833435 121.6975708 C-121.53886878 121.17554195 -121.0194032 120.6535131 -120.48419625 120.1156652 C-118.73927556 118.36579756 -116.98383797 116.62687745 -115.22827148 114.88769531 C-113.97626413 113.63653403 -112.72491671 112.38471206 -111.47418213 111.13227844 C-108.07401076 107.73124492 -104.66465665 104.33955227 -101.25361133 100.94942951 C-97.69148164 97.40602998 -94.1378232 93.85415574 -90.58326721 90.30316162 C-83.84963356 83.57885918 -77.10838777 76.86224182 -70.36439139 70.14833426 C-62.68751139 62.50496472 -55.01912932 54.85309379 -47.35145843 47.20048761 C-31.57709367 31.45749628 -15.79205774 15.72524183 0 0 Z " fill="#BABBBF" transform="translate(280,42)"/>
<path d="M0 0 C-0.56589844 0.55429687 -1.13179687 1.10859375 -1.71484375 1.6796875 C-2.44832031 2.40414062 -3.18179688 3.12859375 -3.9375 3.875 C-5.03384766 4.95394531 -5.03384766 4.95394531 -6.15234375 6.0546875 C-8.05667999 7.87027192 -8.05667999 7.87027192 -9 10 C-9.66 10 -10.32 10 -11 10 C-11 10.66 -11 11.32 -11 12 C-12.37008762 13.35119915 -12.37008762 13.35119915 -14.32460022 14.95768738 C-19.76290388 19.58729371 -24.76476216 24.62444993 -29.80639648 29.67700195 C-30.86977386 30.73902161 -31.93336327 31.800829 -32.99714661 32.86244202 C-35.86261463 35.72338319 -38.72494939 38.58743946 -41.58656192 41.45223641 C-44.58746009 44.45567888 -47.59081148 47.45666666 -50.59376526 50.45805359 C-55.62802938 55.49050372 -60.66019278 60.52504722 -65.69116211 65.56079102 C-71.5106599 71.3857477 -77.3337753 77.20706931 -83.15874809 83.02655059 C-88.1662436 88.02951412 -93.1717954 93.0344161 -98.17571503 98.0409562 C-101.16198618 101.02878737 -104.1489314 104.01593623 -107.13763237 107.00133705 C-109.94130956 109.80213372 -112.74254474 112.60534974 -115.54188347 115.41048241 C-116.57102076 116.44094556 -117.60101665 117.47055201 -118.63191605 118.49925232 C-120.0347429 119.89936135 -121.43420957 121.3028347 -122.83348083 122.70649719 C-123.61859763 123.49199101 -124.40371443 124.27748484 -125.21262264 125.0867815 C-127.05926354 126.88202447 -127.05926354 126.88202447 -128 129 C-131.22152548 128.35861031 -133.58267799 127.21541967 -136.375 125.5 C-137.25027344 124.96375 -138.12554687 124.4275 -139.02734375 123.875 C-141.15406069 122.53357538 -143.2704386 121.18196018 -145.37890625 119.8125 C-145.96816895 119.43029297 -146.55743164 119.04808594 -147.16455078 118.65429688 C-148.85141956 117.55604356 -150.53327348 116.45009897 -152.21484375 115.34375 C-155.15705948 113.46633615 -158.18183841 111.80074268 -161.2578125 110.15234375 C-167.00009562 107.05532695 -172.46547797 103.61006024 -177.9375 100.0625 C-184.66099186 95.73904797 -191.39609763 91.53109962 -198.34375 87.578125 C-201.35473747 85.78924421 -204.23149637 83.84784338 -207.125 81.875 C-211.47833355 78.921762 -215.83759759 76.5265658 -220.578125 74.26953125 C-224.06426068 72.44212142 -227.15050305 70.1522215 -230.328125 67.83984375 C-234.30118694 65.10400724 -238.50313964 62.80494708 -242.7265625 60.48046875 C-243.47679687 59.99191406 -244.22703125 59.50335938 -245 59 C-245 58.34 -245 57.68 -245 57 C-244.030625 56.75765625 -243.06125 56.5153125 -242.0625 56.265625 C-241.104646 56.02610107 -241.104646 56.02610107 -240.12744141 55.78173828 C-238.68187956 55.42043076 -237.23623866 55.05943944 -235.79052734 54.69873047 C-232.28816448 53.82445983 -228.7871946 52.94579062 -225.2890625 52.0546875 C-217.05060284 49.96433206 -208.78577749 48.01934332 -200.5 46.125 C-191.97508753 44.17570974 -183.47725179 42.1470554 -175 40 C-166.97786962 37.971212 -158.94127035 36.03305459 -150.875 34.1875 C-140.03241887 31.70526358 -129.19983504 29.18340112 -118.375 26.625 C-117.56556946 26.43371521 -116.75613892 26.24243042 -115.92218018 26.04534912 C-104.01136362 23.22644699 -92.12921712 20.30584428 -80.2616272 17.31066895 C-70.33276436 14.80651189 -60.38234784 12.42840979 -50.3984375 10.15429688 C-42.8346062 8.43095204 -35.29002779 6.63701032 -27.75 4.8125 C-14.26506789 1.5656243 -14.26506789 1.5656243 -7.5625 0.0625 C-6.51191406 -0.17339844 -5.46132813 -0.40929687 -4.37890625 -0.65234375 C-2 -1 -2 -1 0 0 Z " fill="#BBBCBF" transform="translate(269,30)"/>
<path d="M0 0 C-0.56589844 0.55429687 -1.13179687 1.10859375 -1.71484375 1.6796875 C-2.44832031 2.40414062 -3.18179688 3.12859375 -3.9375 3.875 C-5.03384766 4.95394531 -5.03384766 4.95394531 -6.15234375 6.0546875 C-8.05667999 7.87027192 -8.05667999 7.87027192 -9 10 C-9.66 10 -10.32 10 -11 10 C-11 10.66 -11 11.32 -11 12 C-12.43359375 13.62109375 -12.43359375 13.62109375 -14.4375 15.4375 C-15.07558594 16.03433594 -15.71367187 16.63117187 -16.37109375 17.24609375 C-22.32824463 21.22047821 -29.89454517 22.58058787 -36.79296875 24.234375 C-37.60883453 24.43308701 -38.42470032 24.63179901 -39.26528931 24.83653259 C-41.90510153 25.47824015 -44.54624439 26.11426206 -47.1875 26.75 C-49.03414696 27.19747179 -50.88074477 27.64514645 -52.72729492 28.09301758 C-64.61176807 30.96971174 -76.51234015 33.77100021 -88.42651367 36.52197266 C-97.98233481 38.73718871 -107.49544483 41.10535187 -117.00463867 43.51196289 C-125.08511059 45.54806441 -133.19095149 47.42299849 -141.3269043 49.22265625 C-147.049657 50.50606575 -152.68016267 51.99273924 -158.3125 53.625 C-164.68293514 55.46838983 -170.99504397 56.78402434 -177.53857422 57.83862305 C-183.7408567 58.8718601 -189.74465138 60.4280757 -195.80615234 62.08496094 C-202.29250295 63.8489921 -208.81537103 65.34890489 -215.39038086 66.74389648 C-219.30276468 67.54428595 -219.30276468 67.54428595 -223 69 C-229.00202881 69.8471332 -232.55909063 67.28625696 -237.375 64.125 C-238.11105469 63.66480469 -238.84710938 63.20460938 -239.60546875 62.73046875 C-243.56594823 60.19546797 -243.56594823 60.19546797 -245 59 C-245 58.34 -245 57.68 -245 57 C-244.030625 56.75765625 -243.06125 56.5153125 -242.0625 56.265625 C-241.104646 56.02610107 -241.104646 56.02610107 -240.12744141 55.78173828 C-238.68187956 55.42043076 -237.23623866 55.05943944 -235.79052734 54.69873047 C-232.28816448 53.82445983 -228.7871946 52.94579062 -225.2890625 52.0546875 C-217.05060284 49.96433206 -208.78577749 48.01934332 -200.5 46.125 C-191.97508753 44.17570974 -183.47725179 42.1470554 -175 40 C-166.97786962 37.971212 -158.94127035 36.03305459 -150.875 34.1875 C-140.03241887 31.70526358 -129.19983504 29.18340112 -118.375 26.625 C-117.56556946 26.43371521 -116.75613892 26.24243042 -115.92218018 26.04534912 C-104.01136362 23.22644699 -92.12921712 20.30584428 -80.2616272 17.31066895 C-70.33276436 14.80651189 -60.38234784 12.42840979 -50.3984375 10.15429688 C-42.8346062 8.43095204 -35.29002779 6.63701032 -27.75 4.8125 C-14.26506789 1.5656243 -14.26506789 1.5656243 -7.5625 0.0625 C-6.51191406 -0.17339844 -5.46132813 -0.40929687 -4.37890625 -0.65234375 C-2 -1 -2 -1 0 0 Z " fill="#BBBCBF" transform="translate(269,30)"/>
<path d="M0 0 C2.76646035 1.38323017 4.64309576 2.46464364 6.375 5.0625 C8.14407361 13.37714595 5.11563398 22.23854975 3.02047729 30.25619507 C2.10267062 33.77205922 1.21081133 37.29452987 0.31640625 40.81640625 C0.1274025 41.55856888 -0.06160126 42.30073151 -0.2563324 43.06538391 C-2.45923172 51.74876462 -4.51242537 60.46701688 -6.5625 69.1875 C-7.31998737 72.40632661 -8.07781404 75.62507315 -8.8359375 78.84375 C-9.01962387 79.62395004 -9.20331024 80.40415009 -9.39256287 81.20799255 C-11.12232656 88.54314451 -12.9036241 95.86532331 -14.6875 103.1875 C-17.21677871 113.58693273 -19.60584845 124.01139782 -21.87182617 134.47143555 C-23.25086609 140.79876565 -24.75131517 147.08496404 -26.33732605 153.3636322 C-28.56023988 162.1814885 -30.66766758 171.02711831 -32.78173828 179.87158203 C-33.49737065 182.86400535 -34.215421 185.85584174 -34.93359375 188.84765625 C-37.05360265 197.699588 -39.14561216 206.55381936 -41.09375 215.4453125 C-42.7529228 223.01358415 -44.58558836 230.52807934 -46.5 238.03546143 C-47.3418405 241.34311768 -48.17024567 244.65413892 -49 247.96484375 C-49.33111777 249.28467256 -49.66225387 250.60449677 -49.9934082 251.92431641 C-50.24050034 252.90963348 -50.24050034 252.90963348 -50.49258423 253.91485596 C-50.83716742 255.28842215 -51.18204669 256.66191409 -51.52719116 258.03533936 C-53.84692653 267.27037919 -56.09649358 276.51357523 -58.11328125 285.8203125 C-59.77829696 291.79089746 -62.2753478 295.96676032 -67 300 C-70.64334273 301.6332226 -75.07631481 301.55082504 -79 301 C-83.12909332 298.85898865 -85.11945033 297.18290487 -87 293 C-86.02160156 293.05220703 -86.02160156 293.05220703 -85.0234375 293.10546875 C-79.45972652 293.27779608 -75.89576543 292.93745926 -71 290 C-70.34 290 -69.68 290 -69 290 C-67.04797909 285.56303602 -65.92557282 281.0456749 -64.79296875 276.3515625 C-64.5872374 275.51035355 -64.38150604 274.66914459 -64.16954041 273.80244446 C-63.50475223 271.07761025 -62.84582847 268.35140149 -62.1875 265.625 C-61.96245789 264.6984964 -61.73741577 263.7719928 -61.5055542 262.81741333 C-58.7105735 251.31004146 -56.00168144 239.7952461 -53.54711914 228.20996094 C-52.22296112 221.96319671 -50.73913954 215.78183026 -49.16015625 209.59375 C-45.32423518 194.51437217 -41.72667777 179.36760457 -38.3125 164.1875 C-36.11551579 154.42390286 -33.71321119 144.72369161 -31.2421875 135.02587891 C-27.65153353 120.90445764 -24.23265179 106.76980726 -21.13378906 92.53198242 C-19.52544769 85.19891723 -17.7204439 77.94891653 -15.7512207 70.70556641 C-14.12958947 64.67453386 -12.83123823 58.60717361 -11.59155273 52.48779297 C-10.22009745 45.8198006 -8.60635795 39.22429592 -6.9375 32.625 C-6.6782373 31.59930908 -6.41897461 30.57361816 -6.15185547 29.5168457 C-5.65541503 27.55448892 -5.15883944 25.59216631 -4.66210938 23.62988281 C-2.69006332 15.79696242 -0.78955918 8.05350361 0 0 Z " fill="#939498" transform="translate(311,19)"/>
<path d="M0 0 C2.4375 0.8125 2.4375 0.8125 5 2 C7.10047618 8.30142854 5.91816718 14.33944187 4.390625 20.65625 C4.22254333 21.36164917 4.05446167 22.06704834 3.88128662 22.79382324 C3.34593364 25.03133839 2.79817144 27.265595 2.25 29.5 C1.89762661 30.96595116 1.54605873 32.43209618 1.1953125 33.8984375 C-0.53114218 41.08931291 -2.31366222 48.26562153 -4.1171875 55.4375 C-5.62602917 61.43978722 -7.03965265 67.45688704 -8.375 73.5 C-10.37748119 82.45231531 -12.57717746 91.34451359 -14.8371582 100.23486328 C-16.3959796 106.42286614 -17.80075608 112.62009577 -19.0625 118.875 C-20.28229063 124.91643973 -21.72665252 130.8290486 -23.4375 136.75 C-25.33484834 143.32881783 -26.90613199 149.92444813 -28.3125 156.625 C-30.3124076 166.1446576 -32.60588607 175.57379202 -35 185 C-37.64861671 195.43170439 -40.12533614 205.87861734 -42.35205078 216.40991211 C-43.6524459 222.52220888 -45.17713645 228.53380415 -46.83984375 234.55859375 C-48.53115394 240.87455627 -49.96061105 247.25632079 -51.4375 253.625 C-51.74295364 254.93816213 -52.04845481 256.2513132 -52.35400391 257.56445312 C-53.73739122 263.51732022 -55.10888763 269.47263818 -56.45703125 275.43359375 C-56.88793355 277.30991588 -57.31891703 279.18621937 -57.75 281.0625 C-58.02928345 282.32731201 -58.02928345 282.32731201 -58.31420898 283.61767578 C-59.4585619 288.5609934 -60.57220158 293.00164705 -64.65625 296.36328125 C-70.44239824 299.34216689 -75.57453139 299.42521483 -82 299 C-82 298.34 -82 297.68 -82 297 C-82.61875 296.731875 -83.2375 296.46375 -83.875 296.1875 C-86 295 -86 295 -88 292 C-87.27554688 292.04640625 -86.55109375 292.0928125 -85.8046875 292.140625 C-79.64186241 292.3707038 -75.79817623 292.31835861 -71 288 C-68.67845336 285.25795358 -67.53182831 283.07709852 -66.75390625 279.578125 C-66.55869385 278.72629639 -66.36348145 277.87446777 -66.16235352 276.99682617 C-65.96440186 276.09037354 -65.7664502 275.1839209 -65.5625 274.25 C-65.12573323 272.33446808 -64.68822746 270.41910453 -64.25 268.50390625 C-64.03730469 267.5617627 -63.82460937 266.61961914 -63.60546875 265.64892578 C-62.80539164 262.14858842 -61.94111413 258.66900848 -61.0625 255.1875 C-60.90370361 254.55537598 -60.74490723 253.92325195 -60.58129883 253.27197266 C-59.84855401 250.35604243 -59.11191221 247.441117 -58.37255859 244.52685547 C-54.27395653 228.36130318 -50.41869231 212.14390468 -46.61993408 195.90603638 C-45.32253204 190.36477846 -44.0136816 184.82629665 -42.69921875 179.2890625 C-42.50711823 178.47981323 -42.3150177 177.67056396 -42.11709595 176.83679199 C-41.72946283 175.20413473 -41.34179809 173.57148498 -40.95410156 171.93884277 C-38.16100651 160.17593255 -35.3891974 148.40929695 -32.6875 136.625 C-30.73605002 128.12178809 -28.71168326 119.64603752 -26.55810547 111.19140625 C-23.2014877 98.01161575 -19.92170731 84.82671398 -16.96069336 71.55200195 C-15.30409625 64.19014433 -13.48007317 56.87658424 -11.625 49.5625 C-8.03289921 35.38435433 -4.80672997 21.13443106 -1.64501953 6.85546875 C-1.12672346 4.56099831 -0.58408306 2.27840664 0 0 Z " fill="#BBBCBF" transform="translate(305,14)"/>
<path d="M0 0 C0.99 0.495 0.99 0.495 2 1 C0.68 6.94 -0.64 12.88 -2 19 C-2.99 19 -3.98 19 -5 19 C-7.3019506 20.83511474 -7.3019506 20.83511474 -9.7333374 23.3321991 C-10.20621476 23.79827979 -10.67909213 24.26436048 -11.1662991 24.74456483 C-12.75580238 26.31501171 -14.33432173 27.89605772 -15.91308594 29.47729492 C-17.04754132 30.60277811 -18.1826118 31.7276416 -19.31825256 32.85192871 C-22.40587116 35.91298974 -25.48363754 38.98377784 -28.55895901 42.0571878 C-31.12389071 44.61927532 -33.69290122 47.17725466 -36.26172566 49.73543817 C-42.31996182 55.76922691 -48.36959274 61.81155385 -54.41455078 67.85864258 C-60.65787103 74.10376611 -66.91773405 80.33195849 -73.1855886 86.55244941 C-78.56019299 91.88787681 -83.9232182 97.23475619 -89.27730966 102.59076768 C-92.47793517 105.79215956 -95.68308675 108.9886803 -98.89989471 112.17381859 C-101.92388505 115.16884748 -104.93324453 118.17783034 -107.93182182 121.19829559 C-109.03643475 122.30605624 -110.14622189 123.4086842 -111.26140785 124.50580025 C-112.7800379 126.00139975 -114.27911589 127.51418823 -115.77459717 129.03288269 C-116.61967205 129.87632327 -117.46474693 130.71976385 -118.33543015 131.58876324 C-120.27654398 133.87534291 -120.27654398 133.87534291 -119.85930252 136.64272022 C-118.79967152 139.54955066 -117.35098515 141.87037019 -115.625 144.4375 C-109 154.5450462 -109 154.5450462 -109 159 C-108.34 159 -107.68 159 -107 159 C-105.50318098 161.11445381 -104.14903406 163.22289415 -102.8125 165.4375 C-102.38614258 166.13109619 -101.95978516 166.82469238 -101.52050781 167.53930664 C-96.73194315 175.36146903 -92.03802509 183.24314525 -87.35473633 191.12866211 C-84.11994166 196.55691637 -80.81624282 201.88060242 -77.19189453 207.05859375 C-75.42127617 209.94264889 -74.70118829 212.70441503 -74 216 C-73.34 216 -72.68 216 -72 216 C-70.76318359 217.60473633 -70.76318359 217.60473633 -69.3984375 219.83203125 C-68.90859375 220.63060547 -68.41875 221.42917969 -67.9140625 222.25195312 C-67.40617187 223.09693359 -66.89828125 223.94191406 -66.375 224.8125 C-65.6015625 226.06256836 -65.6015625 226.06256836 -64.8125 227.33789062 C-61 233.61641245 -61 233.61641245 -61 237 C-60.34 237 -59.68 237 -59 237 C-57.3125 239.3125 -57.3125 239.3125 -56 242 C-56.33 242.99 -56.66 243.98 -57 245 C-59.71597163 241.71006487 -62.09819611 238.39469331 -64.3125 234.75 C-64.63879395 234.21479736 -64.96508789 233.67959473 -65.30126953 233.12817383 C-69.6956105 225.89748551 -74.01985252 218.62392362 -78.36401367 211.36303711 C-82.26234425 204.85871252 -86.21869523 198.39952223 -90.27709961 191.99414062 C-94.56285207 185.18835501 -98.59880655 178.23331097 -102.62353516 171.27075195 C-103.14866699 170.3705835 -103.67379883 169.47041504 -104.21484375 168.54296875 C-104.68011475 167.73883545 -105.14538574 166.93470215 -105.62475586 166.10620117 C-106.92810701 164.11010489 -108.32378723 162.67507461 -110 161 C-110.95615536 159.11678966 -111.90747055 157.23079342 -112.82226562 155.32714844 C-115.51878089 149.99895948 -118.80275209 144.97761928 -121.9296875 139.89453125 C-122.71472656 138.60482422 -122.71472656 138.60482422 -123.515625 137.2890625 C-123.99290039 136.51256348 -124.47017578 135.73606445 -124.96191406 134.93603516 C-126 133 -126 133 -126 131 C-126.66 131 -127.32 131 -128 131 C-127.51722823 126.78566891 -124.94359771 124.53150881 -122.05833435 121.6975708 C-121.53886878 121.17554195 -121.0194032 120.6535131 -120.48419625 120.1156652 C-118.73927556 118.36579756 -116.98383797 116.62687745 -115.22827148 114.88769531 C-113.97626413 113.63653403 -112.72491671 112.38471206 -111.47418213 111.13227844 C-108.07401076 107.73124492 -104.66465665 104.33955227 -101.25361133 100.94942951 C-97.69148164 97.40602998 -94.1378232 93.85415574 -90.58326721 90.30316162 C-83.84963356 83.57885918 -77.10838777 76.86224182 -70.36439139 70.14833426 C-62.68751139 62.50496472 -55.01912932 54.85309379 -47.35145843 47.20048761 C-31.57709367 31.45749628 -15.79205774 15.72524183 0 0 Z " fill="#BBBCBF" transform="translate(280,42)"/>
<path d="M0 0 C-1.60695731 4.17808901 -4.55161192 7.24287658 -8 10 C-10.62158769 11.04064671 -12.80403047 11.75095983 -15.51171875 12.34375 C-16.5881942 12.60639397 -16.5881942 12.60639397 -17.68641663 12.87434387 C-20.01570958 13.43703481 -22.35084341 13.96880341 -24.6875 14.5 C-26.3099767 14.88525541 -27.93204481 15.27223543 -29.55371094 15.66088867 C-34.36213751 16.80527805 -39.17930527 17.90859772 -44 19 C-45.03534882 19.23520355 -45.03534882 19.23520355 -46.09161377 19.47515869 C-52.48833245 20.92683331 -58.89186939 22.3454361 -65.30078125 23.7421875 C-71.78188086 25.16035735 -78.20929586 26.74342781 -84.63525391 28.39453125 C-89.96112777 29.7581661 -95.29296947 31.09817817 -100.625 32.4375 C-101.83454346 32.74147705 -103.04408691 33.0454541 -104.2902832 33.35864258 C-112.60945374 35.43634693 -120.95159535 37.37000368 -129.32348633 39.22192383 C-135.04740184 40.50551997 -140.67903438 41.99241226 -146.3125 43.625 C-152.68293514 45.46838983 -158.99504397 46.78402434 -165.53857422 47.83862305 C-171.7408567 48.8718601 -177.74465138 50.4280757 -183.80615234 52.08496094 C-190.29250295 53.8489921 -196.81537103 55.34890489 -203.39038086 56.74389648 C-207.30276468 57.54428595 -207.30276468 57.54428595 -211 59 C-215.24987463 59.59300576 -217.47446784 58.94176143 -220.875 56.5 C-221.92724714 55.68006717 -222.97271807 54.85100278 -224 54 C-221.50115159 51.50115159 -219.80354279 51.29152884 -216.375 50.484375 C-215.20718994 50.2059375 -214.03937988 49.9275 -212.83618164 49.640625 C-211.5702417 49.34671875 -210.30430176 49.0528125 -209 48.75 C-207.67882269 48.43806019 -206.35777926 48.12555284 -205.03686523 47.8125 C-201.02692112 46.86484259 -197.01378246 45.93124356 -193 45 C-191.8670752 44.73638672 -190.73415039 44.47277344 -189.56689453 44.20117188 C-184.2625563 42.9686152 -178.95620283 41.7450524 -173.6484375 40.52734375 C-153.97740488 36.0134027 -134.33608657 31.38282644 -114.72265625 26.625 C-109.64540294 25.39432498 -104.56348019 24.18533966 -99.47827148 22.98803711 C-91.91128947 21.20610971 -84.38324812 19.32828127 -76.875 17.3125 C-71.2537447 15.80396943 -65.69359963 14.48597478 -59.94360352 13.55322266 C-56.51354022 12.90857445 -53.16286256 12.06708472 -49.78125 11.203125 C-43.90123098 9.71380828 -38.01170955 8.27623551 -32.10546875 6.89453125 C-31.37125198 6.72267807 -30.63703522 6.55082489 -29.88056946 6.37376404 C-26.87865007 5.67225794 -23.87623409 4.97289212 -20.8737793 4.27368164 C-18.63823857 3.75261576 -16.40309157 3.2298863 -14.16796875 2.70703125 C-13.1509211 2.47111015 -13.1509211 2.47111015 -12.11332703 2.23042297 C-2.58368481 0 -2.58368481 0 0 0 Z " fill="#939498" transform="translate(257,40)"/>
<path d="M0 0 C-0.08879765 1.52180804 -0.19697 3.04248765 -0.3125 4.5625 C-0.37050781 5.40941406 -0.42851562 6.25632812 -0.48828125 7.12890625 C-2.12526426 16.31350556 -7.71210686 21.23398707 -14.17871094 27.5534668 C-15.23584641 28.60127915 -16.2920616 29.65002068 -17.34742737 30.69961548 C-19.61390657 32.95011202 -21.88639268 35.19429439 -24.16371918 37.4338131 C-27.76243574 40.97353667 -31.34519654 44.52912158 -34.92559814 48.08735657 C-43.81594914 56.91773358 -52.72733338 65.72680542 -61.64239502 74.53222656 C-68.58092557 81.38592531 -75.5137161 88.24522572 -82.4295733 95.12181216 C-85.99095622 98.66167012 -89.56384101 102.18936693 -93.14578295 105.70841444 C-95.36604135 107.89465742 -97.57592996 110.09115326 -99.78303337 112.29066849 C-100.81110784 113.31095525 -101.84350812 114.32690363 -102.88041115 115.33821678 C-104.29108492 116.7152379 -105.68521013 118.10915251 -107.07830811 119.50395203 C-107.86438824 120.28022792 -108.65046837 121.05650381 -109.46036911 121.85630322 C-111.23647879 123.84611743 -111.23647879 123.84611743 -110.84740067 126.09862995 C-109.57305979 128.95795455 -107.97550309 131.53619793 -106.3125 134.1875 C-105.95454346 134.76121338 -105.59658691 135.33492676 -105.2277832 135.92602539 C-102.65155759 140.03362614 -99.96175033 144.05711978 -97.2421875 148.0703125 C-95.60793564 150.60905596 -94.32374568 153.28947313 -93 156 C-92.00692179 157.33849671 -91.00642948 158.67151309 -90 160 C-89.05910568 161.63918136 -88.11967419 163.27922478 -87.1887207 164.92407227 C-84.95829585 168.81918472 -82.62754251 172.65479432 -80.3125 176.5 C-79.23559795 178.29031699 -78.15877561 180.08068192 -77.08203125 181.87109375 C-76.55561035 182.74620605 -76.02918945 183.62131836 -75.48681641 184.52294922 C-74.19820076 186.66979559 -72.91529429 188.819822 -71.63671875 190.97265625 C-70.92456064 192.16931932 -70.21232345 193.36593534 -69.5 194.5625 C-68.98360962 195.43322144 -68.98360962 195.43322144 -68.45678711 196.3215332 C-66.29488683 199.93616757 -64.04744295 203.48267605 -61.7421875 207.0078125 C-61.18466797 207.86689209 -60.62714844 208.72597168 -60.05273438 209.61108398 C-58.95292229 211.30001252 -57.84257155 212.98213532 -56.72070312 214.65649414 C-55.97336914 215.80686157 -55.97336914 215.80686157 -55.2109375 216.98046875 C-54.76024902 217.66004639 -54.30956055 218.33962402 -53.84521484 219.03979492 C-52.80624774 221.44934629 -53.11651679 222.57903971 -54 225 C-54.66 223.35 -55.32 221.7 -56 220 C-56.66 220 -57.32 220 -58 220 C-58.37511719 219.29875 -58.75023437 218.5975 -59.13671875 217.875 C-61.95915146 212.64247992 -64.83753957 207.51931908 -68.1171875 202.55859375 C-69 201 -69 201 -69 199 C-69.66 199 -70.32 199 -71 199 C-71.54914063 197.86691406 -72.09828125 196.73382813 -72.6640625 195.56640625 C-75.00948781 190.8806946 -77.65561441 186.41382507 -80.375 181.9375 C-80.88667725 181.09058594 -81.39835449 180.24367187 -81.92553711 179.37109375 C-83.02779292 177.54840605 -84.13160374 175.726658 -85.23681641 173.90576172 C-87.09278734 170.84708461 -88.94296369 167.78494488 -90.79296875 164.72265625 C-92.04913328 162.64822801 -93.30563684 160.57400503 -94.5625 158.5 C-95.45557861 157.02261353 -95.45557861 157.02261353 -96.36669922 155.51538086 C-97.2080542 154.13104858 -97.2080542 154.13104858 -98.06640625 152.71875 C-98.56084229 151.90341797 -99.05527832 151.08808594 -99.56469727 150.24804688 C-100.9738415 147.96544041 -100.9738415 147.96544041 -102.68334961 145.83007812 C-104 144 -104 144 -104 142 C-104.66 142 -105.32 142 -106 142 C-106.36351562 141.24976563 -106.72703125 140.49953125 -107.1015625 139.7265625 C-110.09680167 133.62856275 -113.2321042 127.81638466 -116.99609375 122.15625 C-118 120 -118 120 -117.84507751 118.17053604 C-116.65859878 115.12312938 -114.79519362 113.42372597 -112.48266602 111.11517334 C-111.77190462 110.39950868 -111.77190462 110.39950868 -111.0467844 109.66938615 C-109.45621281 108.07152798 -107.85514254 106.48462641 -106.25390625 104.89746094 C-105.11190113 103.75466505 -103.97054916 102.61121615 -102.82980347 101.46716309 C-99.72924797 98.36146981 -96.61943361 95.26520097 -93.50776291 92.17064953 C-90.25735475 88.93526037 -87.01503598 85.69178412 -83.77172852 82.44927979 C-78.32580618 77.00705074 -72.87427563 71.57049293 -67.41894531 66.13769531 C-60.40674979 59.15440322 -53.40387021 52.16184587 -46.40388489 45.16631699 C-40.39592453 39.16233004 -34.38370595 33.16261243 -28.37080002 27.16357899 C-26.43274357 25.22962864 -24.4952794 23.29508641 -22.55789185 21.360466 C-19.52018106 18.32763395 -16.4798356 15.29746761 -13.43738174 12.26939392 C-12.31781999 11.1543699 -11.19911132 10.03848862 -10.08129501 8.92171478 C-8.56228111 7.40443585 -7.04024694 5.89025594 -5.51733398 4.37689209 C-4.66413071 3.52666348 -3.81092743 2.67643486 -2.93186951 1.80044174 C-1 0 -1 0 0 0 Z " fill="#939498" transform="translate(277,59)"/>
<path d="M0 0 C6.79270666 3.275055 13.08484903 7.00597119 19.3125 11.25 C21.93458497 13.11856875 21.93458497 13.11856875 25 14 C25 14.66 25 15.32 25 16 C26.92376219 16.96611846 28.84856118 17.92725646 30.7890625 18.859375 C36.39728943 21.57996168 41.68607111 24.74922784 47 28 C47.81726563 28.48726562 48.63453125 28.97453125 49.4765625 29.4765625 C52.9594165 31.5792143 56.37147226 33.78764857 59.79296875 35.98828125 C62.40619481 37.62751562 65.03501843 39.22395962 67.68359375 40.8046875 C71.29196542 42.9612099 74.87048783 45.15778504 78.4296875 47.39453125 C79.326875 47.95720703 80.2240625 48.51988281 81.1484375 49.09960938 C82.99175198 50.25762284 84.83284455 51.41917948 86.671875 52.58398438 C87.56132813 53.14021484 88.45078125 53.69644531 89.3671875 54.26953125 C90.16237793 54.77073486 90.95756836 55.27193848 91.77685547 55.78833008 C93.88889619 56.93944562 95.68399508 57.43986153 98 58 C98.58394531 58.58652344 99.16789062 59.17304688 99.76953125 59.77734375 C103.25068379 63.24630311 107.51108761 65.34297613 111.77539062 67.73242188 C116.89598975 70.68796926 116.89598975 70.68796926 118 74 C114.70499877 72.75107952 111.71442832 71.35180555 108.69921875 69.53125 C107.49289795 68.80566895 107.49289795 68.80566895 106.26220703 68.06542969 C105.41255371 67.54883789 104.56290039 67.03224609 103.6875 66.5 C102.80175293 65.96536133 101.91600586 65.43072266 101.00341797 64.87988281 C94.84927257 61.1544526 88.74680884 57.35133076 82.66333008 53.51196289 C78.46050262 50.87302769 74.20152151 48.36758004 69.875 45.9375 C64.56145266 42.94073151 59.42863139 39.75716667 54.32202148 36.42773438 C49.46370667 33.26966047 44.52091105 30.27269352 39.54199219 27.30932617 C35.44143224 24.86828821 31.36961117 22.38769773 27.3125 19.875 C23.14577666 17.29511233 18.94243233 14.80638991 14.6875 12.375 C1.5886102 4.76583059 1.5886102 4.76583059 0 0 Z " fill="#999B9D" transform="translate(20,108)"/>
<path d="M0 0 C4.12984747 0.67110021 7.4562647 2.84313761 11 4.9375 C16.41625668 8.1228787 16.41625668 8.1228787 22 11 C22 11.66 22 12.32 22 13 C22.56952393 13.11158447 23.13904785 13.22316895 23.72583008 13.33813477 C26.28540401 14.08306283 28.13610735 15.16343393 30.38671875 16.58984375 C31.23403564 17.12182373 32.08135254 17.65380371 32.9543457 18.2019043 C33.85628662 18.77465088 34.75822754 19.34739746 35.6875 19.9375 C42.34385168 24.11555085 49.01698275 28.23944525 55.8125 32.1875 C62.17777608 35.88950592 68.44297538 39.72770084 74.6496582 43.69018555 C78.33880422 46.02982096 82.05060894 48.11327094 86 50 C86 50.66 86 51.32 86 52 C86.87269531 52.26039063 87.74539062 52.52078125 88.64453125 52.7890625 C92.01243872 54.00448895 94.66682954 55.46338745 97.6875 57.375 C99.35425781 58.426875 99.35425781 58.426875 101.0546875 59.5 C101.67053711 59.891875 102.28638672 60.28375 102.92089844 60.6875 C105.29299072 62.18495985 107.68099013 63.65519662 110.0703125 65.125 C111.81792798 66.20797897 113.56532469 67.29131105 115.3125 68.375 C116.16739014 68.89884277 117.02228027 69.42268555 117.90307617 69.96240234 C118.69431885 70.45691895 119.48556152 70.95143555 120.30078125 71.4609375 C121.01403564 71.90228027 121.72729004 72.34362305 122.4621582 72.79833984 C122.969646 73.1948877 123.47713379 73.59143555 124 74 C124 74.66 124 75.32 124 76 C120.0273654 74.52129712 116.42707325 72.66821313 112.75 70.5625 C111.69296875 69.96566406 110.6359375 69.36882812 109.546875 68.75390625 C107 67 107 67 106 64 C105.16984375 63.93167969 104.3396875 63.86335938 103.484375 63.79296875 C99.06151539 62.7864211 95.99932392 60.78977192 92.25 58.3125 C90.82990784 57.39769077 89.40933563 56.48362631 87.98828125 55.5703125 C87.30459473 55.12719727 86.6209082 54.68408203 85.91650391 54.22753906 C83.45856406 52.65320511 80.954818 51.16463591 78.4375 49.6875 C75.0380362 47.66942367 71.83727928 45.49436738 68.65234375 43.15625 C65.88607628 41.22051674 62.95068696 39.63927053 60 38 C57.53975141 36.53499761 55.08949948 35.05423313 52.640625 33.5703125 C47.78417381 30.63422273 42.89446014 27.79190207 37.91015625 25.078125 C36.22788102 24.12861996 34.60730276 23.07153517 33 22 C33 21.34 33 20.68 33 20 C32.01 19.9071875 32.01 19.9071875 31 19.8125 C25.76870959 18.39569218 21.5876506 15.0555731 17.109375 12.078125 C16.12453125 11.43359375 15.1396875 10.7890625 14.125 10.125 C13.19945312 9.50882813 12.27390625 8.89265625 11.3203125 8.2578125 C10.55460937 7.84273438 9.78890625 7.42765625 9 7 C8.01 7.495 8.01 7.495 7 8 C7 7.01 7 6.02 7 5 C6.401875 4.731875 5.80375 4.46375 5.1875 4.1875 C3.02775192 3.01506533 1.64209744 1.80630718 0 0 Z " fill="#BDBEC0" transform="translate(12,102)"/>
<path d="M0 0 C0.99 0.33 1.98 0.66 3 1 C2.67 2.98 2.34 4.96 2 7 C1.34 7 0.68 7 0 7 C-0.268125 7.598125 -0.53625 8.19625 -0.8125 8.8125 C-1.98493467 10.97224808 -3.19369282 12.35790256 -5 14 C-5.66 13.67 -6.32 13.34 -7 13 C-6.21625 12.154375 -5.4325 11.30875 -4.625 10.4375 C-1.83068977 7.12074083 -0.92487099 4.20395906 0 0 Z " fill="#C7C8CB" transform="translate(252,304)"/>
<path d="M0 0 C3.16115776 1.36983503 3.9927092 1.9890638 6 5 C6 5.99 6 6.98 6 8 C6.66 8 7.32 8 8 8 C8.33 8.99 8.66 9.98 9 11 C8.01 11 7.02 11 6 11 C5.18697675 9.54195831 4.37459869 8.08355685 3.5625 6.625 C3.11003906 5.81289062 2.65757812 5.00078125 2.19140625 4.1640625 C1.4349464 2.79003378 0.70145369 1.40290739 0 0 Z " fill="#C2C3C7" transform="translate(165,193)"/>
<path d="M0 0 C2.00059608 2.54621319 3.79215046 4.98037615 5 8 C4.67 8.66 4.34 9.32 4 10 C3.34 10 2.68 10 2 10 C-1.07692308 4.58461538 -1.07692308 4.58461538 -0.6875 1.625 C-0.460625 1.08875 -0.23375 0.5525 0 0 Z " fill="#9C9DA1" transform="translate(169,191)"/>
<path d="M0 0 C2.875 0.25 2.875 0.25 6 1 C7.375 3.0625 7.375 3.0625 8 5 C4.62496331 3.8141763 2.35277269 2.72426311 0 0 Z " fill="#B6B6B7" transform="translate(119,168)"/>
</svg>
